# xmcd
#
# Track frame offsets:
#        150
#        17608
#        33790
#        51403
#        64348
#        79587
#        94089
#        110993
#        128746
#        147321
#        165751
#        187372
#        201834
#        217585
#        232133
#
# Disc length: 3335 seconds
#
# Revision: 0
# Processed by: cddbd v1.5.2PL0 Copyright (c) Steve Scherf et al.
# Submitted via: CDGFix 3.8
#
DISCID=d20d050f
DTITLE=Reba McEntire - CB90151R
DYEAR=1900
DGENRE=Karaoke
TTITLE0=Reba McEntire - Somebody Should Leave
TTITLE1=Reba McEntire - Whoever's In New England
TTITLE2=Reba McEntire - You Lie
TTITLE3=Reba McEntire - How Blue
TTITLE4=Reba McEntire - The Greatest Man I Never Knew
TTITLE5=Reba McEntire - Little Rock
TTITLE6=Reba McEntire - What Am I Gonna Do About You
TTITLE7=Reba McEntire - One Promise Too Late
TTITLE8=Reba McEntire - Till You Love Me
TTITLE9=Reba McEntire - If I Had Only Known
TTITLE10=Reba McEntire - Where You End And I Begin
TTITLE11=Reba McEntire - Cathy's Clown
TTITLE12=Reba McEntire - The Last One To Know
TTITLE13=Reba McEntire - Walk On
TTITLE14=Reba McEntire - The Heart Is A Lonely Hunter
EXTD=
EXTT0=
EXTT1=
EXTT2=
EXTT3=
EXTT4=
EXTT5=
EXTT6=
EXTT7=
EXTT8=
EXTT9=
EXTT10=
EXTT11=
EXTT12=
EXTT13=
EXTT14=
PLAYORDER=
